<svg xmlns="http://www.w3.org/2000/svg" viewBox="0 0 800 450" role="img" aria-label="Modern Minimal Realty preview">
  <rect width="800" height="450" fill="#ffffff"/>
  <rect x="0" y="0" width="800" height="72" fill="#1a1a2e"/>
  <rect x="48" y="24" width="120" height="24" rx="4" fill="#ffffff" opacity="0.9"/>
  <rect x="560" y="28" width="64" height="16" rx="4" fill="#ffffff" opacity="0.35"/>
  <rect x="640" y="28" width="64" height="16" rx="4" fill="#ffffff" opacity="0.35"/>
  <rect x="720" y="28" width="32" height="16" rx="4" fill="#e94560"/>
  <rect x="48" y="112" width="704" height="140" rx="8" fill="#f5f5f7"/>
  <rect x="72" y="136" width="320" height="28" rx="4" fill="#1a1a2e" opacity="0.85"/>
  <rect x="72" y="176" width="240" height="16" rx="4" fill="#646970" opacity="0.45"/>
  <rect x="72" y="204" width="120" height="32" rx="6" fill="#e94560"/>
  <rect x="48" y="280" width="220" height="120" rx="8" fill="#f5f5f7"/>
  <rect x="292" y="280" width="220" height="120" rx="8" fill="#f5f5f7"/>
  <rect x="536" y="280" width="216" height="120" rx="8" fill="#f5f5f7"/>
  <rect x="0" y="420" width="800" height="30" fill="#1a1a2e"/>
</svg>
